<?xml version="1.0" standalone="no"?>
<!DOCTYPE svg PUBLIC "-//W3C//DTD SVG 20010904//EN"
 "http://www.w3.org/TR/2001/REC-SVG-20010904/DTD/svg10.dtd">
<svg version="1.0" xmlns="http://www.w3.org/2000/svg"
 width="1063.000000pt" height="1063.000000pt" viewBox="0 0 1063.000000 1063.000000"
 preserveAspectRatio="xMidYMid meet">
<metadata>
Created by potrace 1.11, written by Peter Selinger 2001-2013
</metadata>
<g transform="translate(0.000000,1063.000000) scale(0.100000,-0.100000)"
fill="#000000" stroke="none">
<path d="M7875 7514 c50 -78 146 -179 180 -190 11 -4 32 -15 47 -26 74 -52
256 -80 428 -66 14 1 62 -17 108 -40 59 -31 87 -40 99 -34 18 10 3 21 -87 62
-68 30 -72 33 -91 69 -9 18 -25 41 -34 51 -19 22 -118 74 -160 85 -16 5 -32 9
-35 10 -40 12 -89 25 -105 28 -11 2 -38 9 -60 15 -22 6 -55 14 -73 17 -18 3
-65 13 -105 21 -39 9 -85 19 -102 22 l-29 5 19 -29z"/>
<path d="M1378 7463 c-10 -2 -18 -9 -18 -14 0 -8 107 -62 195 -98 19 -8 38
-28 51 -54 17 -35 87 -98 104 -94 3 1 36 -9 73 -22 56 -19 94 -24 210 -26 78
-2 152 -6 165 -9 28 -6 28 -3 -7 47 -37 55 -109 120 -158 146 -101 51 -284 74
-360 46 l-42 -16 -94 50 c-52 28 -96 50 -98 50 -2 -1 -12 -3 -21 -6z"/>
<path d="M6884 7435 c-21 -6 -42 -12 -47 -12 -4 -1 -26 -5 -50 -9 -23 -4 -48
-7 -54 -5 -19 3 -16 -14 5 -30 59 -48 82 -53 238 -55 153 -2 172 -5 277 -44
49 -17 130 -32 185 -33 28 -1 7 -14 -66 -41 -111 -43 -310 -147 -374 -197 -20
-16 -40 -29 -44 -29 -10 0 -107 -77 -190 -152 -60 -54 -164 -185 -164 -207 0
-4 6 -15 13 -25 13 -17 17 -14 60 43 26 34 47 65 47 69 0 11 71 83 109 112 18
14 45 34 59 46 37 28 94 62 155 91 28 14 65 35 81 48 35 26 132 74 101 50 -73
-57 -98 -83 -146 -152 -29 -42 -60 -84 -69 -93 -41 -41 -82 -115 -97 -175 -9
-36 -14 -68 -11 -70 4 -5 55 40 168 151 25 24 61 74 80 111 47 92 122 217 131
221 5 2 18 19 30 39 13 20 37 42 58 50 20 9 38 18 41 22 3 4 43 19 90 33 225
69 266 81 277 81 7 0 8 8 3 21 -8 23 -22 24 -104 6 -74 -15 -131 -4 -336 68
-97 34 -276 72 -360 76 -31 1 -75 -3 -96 -9z"/>
<path d="M620 7342 c-20 -78 -28 -140 -35 -277 -8 -188 -11 -206 -50 -306 -41
-105 -67 -158 -115 -229 -132 -196 -172 -287 -187 -425 -9 -83 -8 -106 12
-205 2 -8 4 -28 4 -43 1 -40 23 -29 27 13 19 179 50 250 224 515 22 33 52 81
67 107 16 26 30 48 34 48 3 0 6 -19 8 -42 1 -24 9 -70 17 -103 20 -75 23 -91
29 -140 3 -22 8 -48 11 -58 3 -10 7 -30 9 -45 3 -15 7 -38 10 -52 3 -14 8 -38
11 -55 3 -16 14 -64 24 -105 32 -125 38 -183 26 -245 -18 -86 -40 -163 -66
-229 -16 -42 -30 -80 -30 -85 0 -5 -13 -23 -30 -41 -36 -39 -140 -176 -140
-185 0 -4 -28 -41 -62 -84 -51 -63 -113 -172 -124 -216 -1 -5 -12 -37 -23 -70
-17 -50 -20 -78 -17 -165 3 -58 11 -130 20 -162 8 -31 17 -67 20 -80 7 -39 34
-98 45 -98 6 0 18 15 27 33 9 17 22 35 28 39 6 4 7 8 2 8 -5 0 -4 6 2 13 10
12 29 76 39 127 2 13 10 38 18 55 7 16 22 51 33 77 17 40 64 115 94 153 5 6
19 23 33 40 33 40 90 156 115 235 12 36 24 72 27 80 3 8 8 24 10 35 8 38 11
50 13 50 1 0 3 16 6 35 2 19 6 49 9 65 9 49 14 97 16 148 2 44 18 68 20 30 1
-28 4 -43 63 -283 23 -92 82 -291 92 -312 8 -15 14 -30 14 -33 0 -3 1 -7 1
-10 4 -14 6 -23 17 -60 6 -23 14 -69 18 -103 6 -61 5 -63 -47 -154 -104 -183
-119 -217 -148 -338 -38 -158 -44 -331 -16 -445 9 -33 17 -68 20 -78 15 -62
114 -225 138 -227 4 0 7 15 8 33 0 17 2 102 3 187 3 148 7 187 23 255 4 17 7
32 8 35 0 3 4 11 8 18 5 6 6 12 2 12 -3 0 9 28 28 63 18 34 44 91 57 127 44
118 43 117 73 52 22 -50 47 -107 52 -122 1 -3 6 -16 12 -30 6 -14 21 -50 32
-80 12 -30 29 -71 38 -90 8 -19 24 -55 35 -80 11 -25 24 -52 28 -60 5 -8 28
-53 51 -99 53 -102 94 -157 177 -236 71 -66 110 -95 130 -95 15 0 44 62 32 70
-70 45 -213 231 -263 343 -9 20 -23 52 -31 70 -29 63 -106 265 -106 276 0 5
-16 49 -35 97 -19 48 -33 89 -31 91 2 3 -2 21 -10 40 -9 19 -17 50 -19 68 -3
18 -12 54 -21 80 -8 26 -14 49 -12 51 2 2 16 -3 31 -11 15 -8 27 -11 27 -8 0
3 6 0 14 -6 8 -7 22 -14 32 -16 67 -14 234 -88 234 -104 0 -3 13 -21 30 -39
16 -18 43 -57 62 -85 18 -29 35 -54 38 -57 3 -3 13 -20 24 -39 50 -90 163
-163 219 -141 22 8 21 8 -5 19 -31 12 -69 66 -88 126 -7 22 -18 54 -25 70 -17
41 -28 68 -30 81 -6 25 -55 92 -93 126 -49 45 -101 71 -207 105 -44 14 -87 28
-95 31 -19 7 -25 8 -87 26 -82 22 -118 49 -132 98 -7 24 -40 111 -73 193 -49
123 -72 186 -93 255 -1 3 -5 14 -9 25 -53 145 -61 169 -72 218 -1 4 -2 8 -4
10 -2 3 -8 23 -19 72 -5 22 -18 74 -29 115 -19 71 -27 105 -37 175 -3 17 -9
51 -13 77 -5 26 -7 50 -5 52 6 6 122 -87 268 -214 28 -25 61 -51 73 -59 25
-18 20 -31 -13 -31 -28 0 -49 -27 -71 -92 -12 -38 -13 -55 -4 -82 9 -27 8 -39
-2 -56 -11 -17 -11 -22 1 -29 8 -5 11 -16 8 -25 -4 -9 -2 -40 3 -69 11 -55 35
-84 55 -67 19 16 26 -1 11 -25 -13 -19 -12 -25 6 -53 22 -35 28 -38 45 -21 8
8 13 5 18 -12 4 -13 25 -39 46 -59 21 -19 40 -46 42 -60 16 -82 31 -99 67 -80
24 13 40 13 40 -1 0 -5 -4 -8 -8 -5 -5 3 -7 -9 -5 -27 9 -71 12 -77 43 -77 16
0 32 5 35 10 10 16 23 12 29 -8 4 -10 21 -35 39 -54 37 -42 85 -56 128 -38 24
10 36 10 57 1 24 -11 25 -14 9 -22 -28 -16 -20 -70 11 -77 14 -2 16 10 2 24
-11 11 0 31 20 34 36 5 71 -1 69 -12 -3 -24 1 -38 11 -38 6 0 10 6 10 13 0 13
15 30 63 75 l25 23 8 -23 c8 -25 8 -251 -1 -367 -3 -49 -1 -79 7 -88 6 -7 40
-30 74 -49 62 -35 64 -36 58 -71 -7 -44 34 -133 73 -158 33 -22 119 -27 155
-9 59 31 118 101 118 142 0 21 -5 20 115 5 65 -9 229 -9 312 0 72 7 183 45
210 71 19 18 24 41 38 176 29 293 32 305 66 306 13 0 40 3 59 7 19 3 58 9 85
12 28 4 65 11 82 16 18 6 46 12 63 14 31 4 110 60 110 79 1 20 25 43 54 50 26
6 28 5 22 -17 -5 -20 -1 -26 17 -31 50 -13 82 -7 99 21 8 14 31 31 49 37 27 9
37 21 54 64 25 62 45 92 61 92 6 0 19 11 28 25 15 22 15 25 1 25 -13 0 -12 5
5 28 17 23 30 72 43 160 2 12 13 31 25 42 12 12 23 31 23 43 1 12 3 40 4 62 2
22 -3 53 -11 69 -8 16 -14 30 -14 32 0 1 17 0 39 -3 47 -7 64 13 19 22 -53 12
-64 30 -50 81 18 65 15 119 -8 160 -32 55 -72 183 -65 205 5 13 -3 28 -24 50
-17 17 -31 35 -31 40 0 5 -7 21 -16 34 -9 14 -13 25 -10 25 14 0 -24 57 -58
87 -20 17 -36 39 -36 48 0 35 -70 114 -102 115 -9 0 -35 19 -57 43 -55 59
-111 85 -208 95 -44 5 -89 15 -99 21 -16 11 -16 12 -1 7 17 -5 24 8 9 18 -11
7 -43 -20 -35 -30 4 -5 1 -3 -7 4 -8 6 -22 12 -31 12 -9 0 -34 20 -55 45 -22
25 -44 45 -50 45 -6 0 -22 8 -35 18 -13 11 -33 21 -44 25 -69 20 -118 47 -70
37 7 -1 7 2 0 8 -5 5 -52 24 -102 42 -147 51 -310 45 -328 -11 -7 -21 -11 -22
-67 -19 -25 1 -39 -4 -46 -16 -8 -15 -26 -18 -99 -19 -86 -2 -163 -18 -163
-35 0 -4 -16 -11 -35 -14 -19 -4 -35 -13 -35 -20 0 -9 9 -12 25 -8 15 2 25 0
25 -7 0 -6 -14 -11 -31 -11 -28 0 -73 -15 -122 -41 -10 -6 -28 -7 -40 -4 -15
4 -18 3 -9 -3 11 -7 8 -13 -11 -29 -14 -11 -32 -36 -40 -55 -9 -21 -25 -39
-39 -44 -35 -11 -128 -12 -121 -1 3 6 1 7 -6 3 -6 -4 -9 -11 -6 -16 5 -7 -32
-24 -48 -21 -5 1 -14 -12 -20 -29 -7 -18 -18 -30 -30 -30 -14 0 -144 -68 -166
-87 -3 -2 2 -16 11 -31 23 -40 12 -59 -19 -30 -22 21 -26 21 -36 7 -7 -9 -32
-18 -55 -22 -58 -7 -95 -41 -89 -82 3 -22 -2 -36 -24 -57 -15 -15 -30 -28 -33
-28 -3 0 -27 21 -53 48 -92 91 -85 87 -365 221 -37 18 -70 37 -74 42 -4 8 -52
193 -70 274 -6 27 -12 99 -18 241 l-6 119 23 -25 c48 -54 210 -170 257 -185
14 -4 27 -11 30 -14 9 -12 111 -43 153 -48 127 -13 230 -7 342 21 38 10 100
14 171 13 l111 -2 -80 33 c-45 17 -88 32 -97 32 -9 0 -20 4 -25 9 -9 8 -130
47 -179 57 -12 2 -65 6 -119 9 -146 7 -186 15 -292 56 -42 16 -105 49 -139 74
-80 57 -166 147 -167 177 -6 94 -3 149 9 183 13 40 13 40 -20 68 -18 15 -36
27 -40 27 -4 0 -12 -17 -18 -38z m3015 -993 c16 -19 13 -18 -17 5 -21 16 -38
30 -38 33 0 8 36 -16 55 -38z m-1640 -41 c-5 -23 -31 -55 -39 -47 -8 7 28 77
36 73 4 -3 5 -14 3 -26z m1546 -5 c13 -17 13 -17 -6 -3 -11 8 -22 16 -24 17
-2 2 0 3 6 3 6 0 17 -8 24 -17z m204 -41 c-3 -3 -11 0 -18 7 -9 10 -8 11 6 5
10 -3 15 -9 12 -12z m-2044 -84 c10 -40 -7 -44 -25 -7 -20 40 -20 41 1 37 9
-2 20 -15 24 -30z m175 6 c-3 -9 -6 -18 -6 -20 0 -2 -10 -4 -22 -4 -21 0 -21
0 -2 19 23 24 38 27 30 5z m-227 -63 c10 -18 6 -31 -10 -31 -5 0 -6 7 -3 15 4
8 1 15 -5 15 -6 0 -11 5 -11 10 0 17 19 11 29 -9z m2235 -50 c-5 -6 -33 31
-33 44 -1 6 8 -1 19 -15 10 -14 17 -27 14 -29z m-140 23 c5 -14 4 -15 -9 -4
-17 14 -19 20 -6 20 5 0 12 -7 15 -16z m116 -56 c0 -12 -7 -10 -24 8 -9 8 -16
23 -16 32 0 13 5 11 20 -8 11 -14 20 -28 20 -32z m-2388 -15 c-4 -10 -7 -33
-6 -50 3 -39 -13 -44 -22 -7 -7 28 9 74 26 74 7 0 8 -7 2 -17z m2353 -43 c4
-6 -5 -10 -20 -10 -15 0 -24 4 -20 10 3 6 12 10 20 10 8 0 17 -4 20 -10z m8
-75 c-7 -21 -13 -19 -13 6 0 11 4 18 10 14 5 -3 7 -12 3 -20z m-2251 -7 c-7
-7 -12 -8 -12 -2 0 14 12 26 19 19 2 -3 -1 -11 -7 -17z m2278 -78 l-8 -35 -1
31 c-1 17 2 34 6 37 11 12 12 3 3 -33z m-2431 16 c9 -11 10 -20 1 -35 -15 -29
-32 -26 -24 3 4 17 0 27 -13 35 -17 10 -17 10 3 11 12 0 27 -6 33 -14z m2565
-131 c-4 -8 -8 -15 -10 -15 -2 0 -4 7 -4 15 0 8 4 15 10 15 5 0 7 -7 4 -15z
m40 -40 c3 -8 1 -15 -4 -15 -6 0 -10 7 -10 15 0 8 2 15 4 15 2 0 6 -7 10 -15z
m-10 -61 c10 -25 1 -27 -19 -4 -15 17 -16 20 -3 20 9 0 19 -7 22 -16z m-2744
-188 c0 -11 -19 -15 -25 -6 -3 5 1 10 9 10 9 0 16 -2 16 -4z m70 -9 c0 -13
-43 -87 -50 -87 -14 0 -13 5 10 50 11 22 25 40 30 40 6 0 10 -1 10 -3z m-211
-101 c-9 -8 -10 -7 -5 7 3 10 7 24 7 30 1 7 3 4 6 -7 3 -10 -1 -23 -8 -30z
m280 -111 c0 -5 -9 6 -21 25 -12 19 -26 38 -30 41 -5 3 -6 14 -2 23 5 14 12 8
30 -30 13 -27 23 -53 23 -59z m2551 4 c17 -30 6 -34 -14 -4 -9 14 -12 25 -7
25 6 0 15 -9 21 -21z m-2643 -21 c-3 -8 -6 -5 -6 6 -1 11 2 17 5 13 3 -3 4
-12 1 -19z m2606 -60 c-2 -4 -12 -3 -22 3 -12 8 -16 20 -13 40 l4 29 17 -32
c10 -18 16 -36 14 -40z m-2564 -36 c1 -7 -3 -10 -9 -7 -5 3 -10 18 -9 33 0 24
1 25 9 7 5 -11 9 -26 9 -33z m65 -25 c-8 -22 -23 -22 -19 1 2 9 4 21 4 27 1 5
5 5 11 -1 6 -6 8 -18 4 -27z m129 13 c-6 -22 -15 -19 -19 5 -1 8 4 15 11 15 8
0 11 -7 8 -20z m2377 3 c0 -5 -4 -14 -9 -22 -11 -17 -32 -5 -24 14 5 15 33 21
33 8z m-2410 -93 c0 -5 -4 -10 -10 -10 -5 0 -10 5 -10 10 0 6 5 10 10 10 6 0
10 -4 10 -10z m18 -75 c2 -24 -12 -43 -21 -28 -4 8 9 53 15 53 2 0 5 -11 6
-25z m2267 -15 c3 -5 18 -10 33 -10 24 0 25 -1 10 -16 -14 -14 -18 -13 -41 10
-14 14 -22 26 -17 26 5 0 12 -4 15 -10z m-2045 -59 c0 -35 -14 -61 -32 -61 -4
0 -8 10 -8 21 0 19 2 20 17 8 15 -12 16 -12 9 6 -9 23 -9 23 -7 53 2 38 21 14
21 -27z m-104 -8 c-4 -26 -24 -27 -21 -1 3 30 3 30 14 24 5 -4 8 -14 7 -23z
m2094 -9 c0 -2 -7 -4 -15 -4 -8 0 -15 4 -15 10 0 5 7 7 15 4 8 -4 15 -8 15
-10z m-1919 -83 c-7 -5 -10 -14 -7 -20 10 -16 -2 -31 -19 -25 -19 8 2 54 24
54 13 0 13 -2 2 -9z m79 -5 c0 -2 -8 -10 -17 -17 -16 -13 -17 -12 -4 4 13 16
21 21 21 13z"/>
<path d="M1009 7303 c-25 -41 -26 -46 -28 -153 -2 -86 2 -116 15 -113 5 1 29
4 54 8 57 8 110 25 131 42 9 7 18 10 22 7 11 -11 52 69 48 96 -3 31 -12 41
-37 41 -30 1 -49 -5 -77 -24 -15 -9 -28 -17 -29 -17 -2 0 -2 20 0 44 8 97 -55
141 -99 69z"/>
<path d="M10153 7297 c-11 -12 -26 -32 -32 -44 -14 -27 -71 -189 -77 -217 -2
-12 -6 -32 -9 -46 -13 -64 -18 -132 -15 -205 5 -135 4 -149 -3 -188 -6 -35
-30 -118 -44 -157 -9 -23 -21 -64 -37 -130 -5 -18 -30 -77 -80 -183 -20 -42
-36 -79 -36 -82 0 -3 -24 -59 -54 -125 -30 -66 -53 -120 -50 -120 3 0 0 -9 -6
-21 -6 -11 -13 -30 -15 -41 -6 -29 -37 -111 -46 -122 -8 -9 -4 106 6 152 5 26
11 98 20 235 6 80 30 200 55 267 24 65 34 434 15 534 -13 69 -42 136 -59 136
-18 0 -54 -61 -82 -140 -41 -118 -60 -225 -58 -330 2 -102 6 -134 31 -220 9
-30 16 -57 16 -60 0 -3 3 -15 8 -26 14 -40 23 -108 21 -169 -3 -86 -11 -186
-17 -215 -3 -14 -7 -61 -9 -105 -4 -73 -12 -147 -21 -200 -2 -11 -23 -63 -48
-115 -76 -162 -107 -231 -107 -237 0 -3 -31 -69 -69 -147 -38 -77 -83 -176
-101 -218 -33 -79 -55 -104 -40 -45 5 17 11 54 15 81 3 27 8 52 10 55 1 3 6
34 10 68 4 35 9 75 11 90 2 16 6 84 9 153 5 101 11 143 35 215 57 178 80 396
55 518 -7 34 -16 84 -20 112 -7 50 -49 145 -63 145 -18 0 -83 -162 -96 -236
-19 -111 -24 -263 -12 -361 5 -35 9 -73 11 -85 2 -13 8 -42 14 -65 32 -116 34
-265 6 -403 -3 -14 -8 -52 -11 -85 -4 -33 -8 -63 -10 -66 -2 -4 -6 -35 -10
-70 -3 -35 -16 -114 -29 -174 -20 -96 -30 -123 -79 -204 -31 -52 -80 -124
-110 -160 -29 -36 -81 -108 -115 -158 -34 -51 -63 -93 -65 -93 -2 0 -4 21 -5
48 -1 26 -3 62 -4 80 -3 29 2 37 39 64 60 43 67 64 49 150 -12 57 -12 81 -3
112 6 23 11 111 12 196 1 137 -2 162 -22 216 -12 33 -22 69 -22 80 0 11 18 55
41 99 22 44 43 91 45 105 3 13 9 29 13 35 5 5 11 26 15 45 3 19 25 63 47 99
23 36 43 77 46 90 2 14 10 29 17 35 12 10 27 58 41 134 2 12 6 26 9 31 3 5 9
105 12 222 9 284 9 289 2 326 -4 19 -2 33 5 36 6 2 -9 34 -35 73 -26 38 -50
82 -53 97 -4 15 -10 27 -14 27 -4 0 -14 15 -23 33 -25 53 -77 104 -193 192
-104 78 -230 153 -285 169 -45 13 -162 19 -345 19 -202 0 -232 -4 -244 -35 -6
-17 -17 -21 -57 -24 -139 -9 -165 -15 -299 -67 -107 -41 -126 -54 -120 -81 5
-18 -10 -28 -121 -81 -142 -67 -178 -93 -168 -118 3 -9 11 -17 17 -17 6 0 1
-10 -11 -23 -12 -13 -22 -28 -22 -34 0 -6 -12 -36 -26 -67 -14 -31 -27 -62
-28 -69 -1 -7 -4 -16 -7 -22 -17 -29 -19 -68 -4 -85 14 -15 14 -22 1 -61 -19
-59 -25 -97 -31 -204 -8 -124 -12 -154 -23 -168 -14 -18 -97 -231 -131 -337
-17 -52 -31 -114 -31 -137 0 -36 3 -43 23 -47 30 -7 107 -16 134 -16 33 0 46
-82 48 -295 0 -99 5 -188 9 -197 7 -16 84 -58 106 -58 5 0 58 -16 117 -36 107
-36 120 -39 218 -48 28 -2 76 -7 108 -11 83 -11 83 -7 51 -256 -4 -30 -1 -37
18 -46 13 -6 26 -10 29 -9 3 0 12 -4 20 -10 18 -14 156 -55 237 -70 13 -3 42
-11 65 -19 99 -33 210 -38 327 -16 30 6 71 13 90 16 45 8 109 27 190 58 l65
25 -2 -96 c-2 -128 -6 -143 -50 -201 -42 -55 -82 -118 -117 -184 -45 -83 -68
-122 -77 -127 -4 -3 -29 -46 -55 -95 -25 -50 -60 -111 -76 -138 -32 -50 -31
-77 1 -77 11 0 26 -2 34 -6 10 -3 32 23 71 86 31 49 56 93 56 96 0 3 8 18 19
32 10 15 37 63 60 107 23 44 52 91 64 105 38 44 305 219 358 235 13 4 31 14
40 21 9 8 25 16 36 18 10 2 46 15 79 29 32 13 100 39 149 57 114 41 212 98
256 148 69 80 135 189 138 228 1 11 -33 11 -114 0 -86 -12 -202 -66 -282 -131
-7 -5 -30 -23 -50 -39 -21 -17 -56 -52 -78 -80 -87 -108 -175 -192 -237 -225
-35 -19 -87 -49 -115 -67 -29 -19 -53 -31 -53 -28 0 12 44 80 112 170 37 50
93 136 123 190 31 54 63 106 70 115 8 8 27 38 43 67 42 77 120 163 272 302 41
38 113 77 244 133 28 11 83 39 121 62 39 22 93 51 120 65 28 13 68 38 90 54
57 43 186 181 210 224 12 20 33 57 49 81 37 58 86 162 81 171 -6 10 -162 -33
-215 -58 -25 -13 -74 -40 -109 -62 -34 -22 -65 -40 -68 -40 -12 0 -174 -123
-212 -162 -24 -24 -83 -101 -131 -173 -65 -96 -111 -151 -176 -210 -48 -44
-101 -93 -117 -110 -29 -29 -30 -30 -22 -5 4 14 15 36 25 50 16 24 80 177 80
192 0 4 15 31 33 60 18 29 38 64 44 78 6 14 32 69 57 123 24 53 43 97 41 97
-3 0 4 15 15 33 11 17 29 49 40 69 47 87 100 161 165 234 39 42 79 87 90 99
11 12 64 41 119 64 154 64 251 137 312 232 15 24 32 49 39 55 15 15 98 174 91
174 -3 0 2 16 10 35 13 33 13 35 -5 35 -28 0 -198 -64 -262 -99 -31 -17 -83
-58 -116 -90 -61 -60 -165 -205 -178 -251 -17 -56 -65 -141 -106 -189 -24 -27
-45 -49 -46 -47 -4 4 38 109 49 120 4 6 8 16 8 24 0 25 177 374 227 448 26 39
68 100 93 137 25 37 53 69 62 72 25 9 170 104 194 129 54 53 125 172 149 250
23 77 41 186 31 186 -3 0 -22 -9 -43 -21 -150 -83 -333 -281 -373 -404 -8 -22
-14 -58 -15 -81 0 -31 -12 -57 -49 -112 -27 -40 -51 -70 -53 -69 -2 2 11 48
27 103 36 117 67 227 74 269 9 57 28 110 64 180 77 153 101 306 67 435 -7 27
-11 51 -9 53 3 2 -2 9 -9 15 -11 9 -18 7 -34 -11z"/>
<path d="M2762 7301 c-16 -10 -32 -58 -32 -99 l0 -37 -52 1 c-64 2 -88 -9 -88
-41 0 -18 7 -25 33 -31 17 -4 35 -9 40 -10 4 -1 10 -2 15 -3 4 -1 2 -5 -4 -9
-34 -22 -56 -116 -33 -139 19 -19 43 -4 83 52 l39 54 36 -29 c57 -48 131 -36
110 17 -4 12 -22 32 -38 44 l-31 23 32 13 c61 26 99 62 96 91 -2 22 -9 28 -36
30 -19 2 -44 -4 -58 -12 -78 -51 -70 -50 -67 -3 5 72 -13 108 -45 88z"/>
<path d="M6627 7303 c-4 -3 -7 -11 -7 -17 0 -6 5 -5 12 2 6 6 9 14 7 17 -3 3
-9 2 -12 -2z"/>
<path d="M6641 7234 c0 -11 3 -14 6 -6 3 7 2 16 -1 19 -3 4 -6 -2 -5 -13z"/>
<path d="M8410 7195 c-11 -13 -10 -14 4 -9 9 3 16 10 16 15 0 13 -6 11 -20 -6z"/>
<path d="M6725 7179 c-15 -23 -14 -64 1 -81 26 -27 85 -5 79 30 -1 9 1 24 6
32 5 11 2 16 -9 17 -9 1 -29 5 -43 8 -17 4 -29 2 -34 -6z"/>
<path d="M9177 7173 c-16 -4 -18 -12 -15 -54 l5 -49 -38 0 c-52 0 -69 -9 -69
-35 0 -26 21 -47 53 -50 12 -1 28 -3 35 -4 10 -1 10 -6 2 -22 -20 -36 -21 -67
-3 -84 16 -16 18 -16 39 8 12 14 24 31 26 38 3 9 11 6 26 -9 25 -25 42 -28 60
-10 17 17 15 49 -4 76 -9 13 -14 24 -13 26 2 1 16 10 31 19 37 23 60 60 52 82
-6 14 -15 16 -51 12 -24 -2 -53 -13 -63 -22 -19 -18 -20 -17 -20 12 0 37 -28
72 -53 66z"/>
<path d="M6480 7160 c0 -5 5 -10 10 -10 6 0 10 5 10 10 0 6 -4 10 -10 10 -5 0
-10 -4 -10 -10z"/>
<path d="M8016 7155 c-11 -8 -17 -17 -14 -21 8 -8 48 14 48 26 0 14 -12 12
-34 -5z"/>
<path d="M1442 7108 c-16 -16 -15 -93 1 -106 30 -25 106 -10 108 21 0 6 2 22
3 35 4 37 -20 62 -63 62 -20 0 -42 -5 -49 -12z"/>
<path d="M8028 7102 c-10 -2 -18 -8 -18 -13 0 -11 11 -11 30 1 18 11 11 18
-12 12z"/>
<path d="M7816 7085 c-10 -7 -16 -19 -14 -25 2 -6 14 0 27 14 26 28 18 35 -13
11z"/>
<path d="M6557 7072 c-36 -39 -24 -106 20 -117 58 -14 92 34 67 93 -7 18 -17
32 -21 33 -4 0 -18 2 -29 4 -12 3 -28 -3 -37 -13z"/>
<path d="M8593 7073 c-3 -10 -8 -22 -11 -28 -3 -5 7 1 21 14 31 28 32 31 12
31 -9 0 -18 -8 -22 -17z"/>
<path d="M6824 6998 l-19 -23 23 19 c21 18 27 26 19 26 -2 0 -12 -10 -23 -22z"/>
<path d="M8130 7010 c-9 -6 -10 -10 -3 -10 6 0 15 5 18 10 8 12 4 12 -15 0z"/>
<path d="M7827 7003 c-4 -3 -7 -11 -7 -17 0 -6 5 -5 12 2 6 6 9 14 7 17 -3 3
-9 2 -12 -2z"/>
<path d="M1620 6916 c-14 -14 -13 -39 3 -61 22 -29 67 -13 67 24 0 42 -42 65
-70 37z"/>
<path d="M389 6893 c0 -5 -2 -15 -4 -23 -2 -8 -6 -25 -9 -38 -3 -12 -8 -27
-11 -32 -3 -6 -3 -15 0 -21 11 -16 37 41 39 84 1 20 -2 37 -6 37 -5 0 -8 -3
-9 -7z"/>
<path d="M9175 6749 c-5 -14 -2 -25 6 -30 24 -15 44 -5 47 24 3 23 0 27 -22
27 -16 0 -27 -7 -31 -21z"/>
<path d="M320 6679 c-15 -56 -8 -58 12 -4 10 25 13 45 8 45 -5 0 -14 -18 -20
-41z"/>
<path d="M9274 6697 c-26 -14 -34 -27 -34 -58 0 -70 98 -65 105 6 5 43 -34 72
-71 52z"/>
<path d="M4609 6657 c-3 -20 -1 -40 6 -82 4 -22 8 -141 10 -265 1 -124 6 -268
11 -320 13 -150 9 -255 -14 -350 -5 -20 -9 -79 -10 -131 -1 -80 4 -118 22
-194 2 -5 6 -28 10 -50 4 -22 12 -53 16 -70 5 -16 11 -41 14 -55 8 -50 39
-145 49 -151 5 -4 21 -33 36 -65 36 -79 53 -104 72 -104 8 0 31 -19 50 -41
100 -121 187 -189 239 -189 22 0 132 -49 188 -83 20 -13 65 -31 98 -40 58 -16
63 -16 100 1 60 27 151 90 196 133 41 39 58 48 58 28 0 -5 22 18 48 53 65 85
100 127 206 238 47 49 84 98 139 179 25 38 47 88 54 124 3 18 10 37 14 43 5 6
11 21 13 35 3 13 5 24 6 24 11 0 17 236 7 280 -4 17 -10 50 -12 75 -3 25 -10
59 -14 76 -8 30 -7 98 4 140 4 19 13 69 20 119 7 50 17 101 21 107 2 3 7 28 9
55 3 26 15 80 27 118 41 136 28 295 -25 295 -19 0 -71 -29 -112 -62 -5 -5 -50
-38 -100 -74 -83 -61 -222 -194 -305 -293 -46 -55 -55 -57 -260 -47 -208 10
-251 8 -311 -10 -21 -6 -80 72 -125 166 -29 62 -60 112 -89 146 -5 7 -25 32
-44 55 -42 53 -155 155 -196 177 -39 20 -124 27 -126 9z"/>
<path d="M286 6593 c-6 -14 -5 -15 5 -6 7 7 10 15 7 18 -3 3 -9 -2 -12 -12z"/>
<path d="M4237 6519 c-9 -5 -24 -23 -32 -39 l-15 -29 -29 30 c-33 33 -43 35
-61 14 -21 -25 1 -61 82 -133 l25 -23 35 48 c27 38 34 57 34 92 -1 47 -10 57
-39 40z"/>
<path d="M9447 6500 c-3 -10 1 -24 8 -30 9 -7 12 -3 13 20 1 34 -13 41 -21 10z"/>
<path d="M236 6453 c-6 -14 -5 -15 5 -6 7 7 10 15 7 18 -3 3 -9 -2 -12 -12z"/>
<path d="M1948 6453 c7 -3 16 -2 19 1 4 3 -2 6 -13 5 -11 0 -14 -3 -6 -6z"/>
<path d="M221 6414 c0 -11 3 -14 6 -6 3 7 2 16 -1 19 -3 4 -6 -2 -5 -13z"/>
<path d="M9435 6410 c4 -14 9 -35 12 -47 3 -13 9 -23 13 -23 10 0 -3 51 -20
77 -10 16 -11 15 -5 -7z"/>
<path d="M145 6320 c-3 -5 -1 -10 4 -10 6 0 11 5 11 10 0 6 -2 10 -4 10 -3 0
-8 -4 -11 -10z"/>
<path d="M568 5843 c-6 -7 -11 -31 -11 -52 0 -39 0 -39 -20 -20 -43 40 -87 31
-87 -17 0 -25 50 -77 100 -105 15 -8 39 -23 53 -32 24 -16 25 -15 32 16 11 51
18 166 11 191 -7 28 -59 41 -78 19z"/>
<path d="M1223 4955 c0 -8 4 -12 9 -9 5 3 6 10 3 15 -9 13 -12 11 -12 -6z"/>
<path d="M6060 4920 c-9 -6 -10 -10 -3 -10 6 0 15 5 18 10 8 12 4 12 -15 0z"/>
<path d="M5885 4719 c-11 -16 -1 -19 13 -3 7 8 8 14 3 14 -5 0 -13 -5 -16 -11z"/>
<path d="M9753 4698 c-24 -12 -43 -26 -43 -30 0 -7 84 34 99 48 12 11 -19 1
-56 -18z"/>
<path d="M9930 4710 c-9 -6 -10 -10 -3 -10 6 0 15 5 18 10 8 12 4 12 -15 0z"/>
<path d="M9665 4660 c-3 -5 1 -10 9 -10 8 0 18 5 21 10 3 6 -1 10 -9 10 -8 0
-18 -4 -21 -10z"/>
<path d="M6367 4643 c-13 -12 -7 -36 24 -104 28 -60 35 -68 57 -66 39 3 133
98 125 126 -3 12 -9 24 -14 27 -13 8 -67 -24 -79 -46 -14 -26 -27 -25 -34 3
-10 43 -59 80 -79 60z"/>
<path d="M10178 4618 c-15 -17 -46 -69 -70 -115 -41 -82 -42 -86 -42 -181 1
-79 7 -116 33 -202 50 -162 47 -192 -16 -215 -51 -18 -73 -20 -248 -29 -172
-8 -237 -38 -296 -136 -31 -53 -83 -176 -79 -188 1 -1 -1 -26 -5 -55 -3 -28
-8 -81 -10 -117 -1 -36 -6 -78 -9 -95 -5 -23 -1 -37 17 -59 l24 -30 34 20 c25
15 42 18 62 13 104 -28 375 47 443 122 70 78 109 181 118 316 4 58 14 108 27
137 18 41 19 51 8 81 -13 34 -13 35 42 88 29 30 68 71 84 93 40 52 101 111
147 141 l37 25 -26 35 -27 35 -77 -79 c-58 -60 -75 -74 -69 -54 9 33 6 178 -5
251 -5 30 -8 58 -7 61 1 8 -43 132 -55 153 -7 12 -13 9 -35 -16z"/>
<path d="M9645 4550 c-3 -5 -1 -10 4 -10 6 0 11 5 11 10 0 6 -2 10 -4 10 -3 0
-8 -4 -11 -10z"/>
<path d="M3663 4305 c-6 -7 -21 -37 -33 -66 -12 -30 -28 -67 -36 -84 -20 -45
-67 -243 -68 -292 0 -24 -4 -43 -7 -43 -4 0 -6 -6 -6 -12 5 -70 -57 -151 -153
-199 -65 -32 -192 -116 -198 -131 -2 -4 -10 -8 -18 -8 -8 0 -14 -4 -14 -9 0
-5 -15 -14 -32 -20 l-33 -11 25 21 c83 68 105 90 145 141 61 80 144 298 114
298 -11 0 -15 -3 -74 -56 -22 -19 -59 -50 -82 -67 -46 -35 -73 -77 -118 -182
-64 -150 -106 -194 -202 -215 -26 -6 -90 -27 -140 -47 -72 -28 -93 -41 -93
-55 0 -11 4 -16 10 -13 11 7 10 6 115 24 81 14 145 31 162 43 6 5 26 10 45 12
18 2 47 10 63 16 17 7 37 14 45 15 23 3 102 17 125 22 11 2 31 6 45 9 14 3 32
7 41 10 9 2 34 7 55 9 57 8 243 72 271 95 14 11 31 20 37 20 6 0 23 10 37 23
15 12 38 31 51 42 26 22 95 130 75 119 -6 -4 -26 -17 -43 -30 -17 -13 -44 -26
-60 -30 -65 -15 -164 -61 -244 -111 -47 -30 -96 -56 -110 -59 -24 -5 -86 -21
-119 -30 -9 -3 0 3 19 14 129 69 220 142 400 323 142 142 180 186 237 271 75
111 92 148 82 176 -12 32 -22 28 -47 -20 -27 -54 -35 -65 -102 -157 -71 -100
-110 -142 -123 -134 -6 3 -7 1 -4 -4 4 -6 -8 -26 -26 -44 -34 -36 -117 -102
-117 -94 0 3 16 46 35 96 20 49 44 132 55 182 11 51 25 115 32 143 13 60 2
122 -19 99z"/>
<path d="M1998 3889 c-9 -5 -24 -10 -34 -12 -78 -15 -124 -82 -130 -185 -7
-131 75 -210 216 -212 44 0 65 6 98 27 58 38 79 84 75 164 -5 96 -34 147 -103
181 -80 40 -104 47 -122 37z"/>
<path d="M8305 3858 c-14 -11 -31 -32 -37 -47 l-10 -26 -16 32 c-16 35 -39 47
-65 37 -22 -8 -25 -32 -11 -81 12 -45 80 -163 93 -163 5 0 27 27 49 59 61 90
81 180 43 200 -15 8 -25 6 -46 -11z"/>
<path d="M586 3761 c-7 -11 3 -41 14 -41 4 0 5 11 2 25 -5 27 -8 30 -16 16z"/>
<path d="M650 3714 c0 -17 -5 -35 -11 -41 -7 -7 -4 -21 11 -47 12 -20 24 -36
27 -36 2 0 1 5 -2 10 -3 6 -2 10 4 10 10 0 10 18 -1 35 -3 6 -9 28 -12 49 -8
49 -16 59 -16 20z"/>
<path d="M730 3616 c0 -9 5 -16 10 -16 6 0 10 4 10 9 0 6 -4 13 -10 16 -5 3
-10 -1 -10 -9z"/>
<path d="M7571 3611 c-34 -21 -16 -100 36 -163 13 -15 10 -16 -40 -15 -57 2
-87 -13 -87 -42 0 -29 22 -41 77 -41 l54 0 -26 -27 c-73 -77 -92 -154 -43
-166 37 -10 86 32 150 126 l26 40 24 -37 c22 -35 34 -43 77 -51 23 -4 51 18
51 41 0 26 -28 69 -65 101 -33 29 -34 32 -16 38 33 10 81 73 81 105 0 16 -5
32 -10 35 -20 13 -69 -7 -112 -44 l-43 -39 -19 38 c-33 68 -88 117 -115 101z"/>
<path d="M669 3469 c20 -55 37 -93 39 -85 3 16 -55 173 -67 181 -5 2 8 -41 28
-96z"/>
<path d="M8889 3463 c0 -5 -2 -17 -4 -28 -6 -27 22 -47 46 -34 19 9 21 32 6
57 -9 13 -46 17 -48 5z"/>
<path d="M8700 3420 c-23 -23 -26 -58 -7 -83 14 -19 58 -29 76 -17 18 11 26
87 11 105 -17 21 -56 19 -80 -5z"/>
<path d="M3662 3408 c-7 -7 -12 -27 -12 -45 0 -27 5 -35 26 -43 46 -18 79 14
62 60 -15 39 -51 53 -76 28z"/>
<path d="M3457 3293 c-29 -34 -26 -81 10 -123 22 -27 31 -31 56 -26 41 8 54
21 61 61 8 43 -14 90 -46 99 -39 10 -64 7 -81 -11z"/>
</g>
</svg>
